# xmcd CD database file
#
# Track frame offsets:
#	150
#	19997
#	33422
#	51485
#	79235
#	104777
#	129045
#	149015
#	165712
#	182842
#	205197
#
# Disc length: 3006 seconds
#
# Revision: 0
# Processed by: cddbd v1.5.2PL0 Copyright (c) Steve Scherf et al.
# Submitted via: CDex 1.70beta2
#
DISCID=a10bbc0b
DTITLE=Heiner Franz, Louis Stewart - IN A MELLOW TONE
DYEAR=1992
DGENRE=Jazz
TTITLE0=IN A MELLOW TONE
TTITLE1=JIVE HOOT
TTITLE2=BLUE DANIEL
TTITLE3=JUST SQUEEZE ME
TTITLE4=NICAS DREAM
TTITLE5=THE MORE I SEE YOU
TTITLE6=STAR EYES
TTITLE7=THERE'LL NEVER BE ANOTHER YOU
TTITLE8=AS LONG AS I LIVE
TTITLE9=IN A SENTIMENTAL MOOD
TTITLE10=TRISTE
EXTD=YEAR: 1992
EXTT0=
EXTT1=
EXTT2=
EXTT3=
EXTT4=
EXTT5=
EXTT6=
EXTT7=
EXTT8=
EXTT9=
EXTT10=
PLAYORDER=
